<?xml version="1.0" encoding="UTF-8"?><svg xmlns="http://www.w3.org/2000/svg" xmlns:xlink="http://www.w3.org/1999/xlink" viewBox="0 0 119.88 29.16"><defs><style>.f{fill:url(#e);}.g{fill:url(#d);}.h{fill:#dadada;}</style><radialGradient id="d" cx="90.2" cy="17.72" fx="90.2" fy="35.67" r="28.79" gradientTransform="matrix(1, 0, 0, 1, 0, 0)" gradientUnits="userSpaceOnUse"><stop offset=".14" stop-color="#cd004b"/><stop offset=".45" stop-color="#f3711b"/><stop offset=".71" stop-color="#fcb808"/></radialGradient><radialGradient id="e" cx="109.77" cy="26.49" fx="109.77" fy="-1.24" r="29.89" gradientTransform="matrix(1, 0, 0, 1, 0, 0)" gradientUnits="userSpaceOnUse"><stop offset=".26" stop-color="#008ad1"/><stop offset=".4" stop-color="#545199"/><stop offset=".54" stop-color="#aa1761"/><stop offset=".61" stop-color="#cd004b"/><stop offset=".96" stop-color="#f3711b"/></radialGradient></defs><g id="a"/><g id="b"><g id="c"><g><path class="g" d="M96.72,24.16h-3.56c-2.72,0-5.1-1.82-5.65-4.34-.37-1.7,.03-3.44,1.1-4.76,1.07-1.33,2.66-2.09,4.36-2.09h3.75c1.38,0,2.5-1.12,2.5-2.5s-1.12-2.5-2.5-2.5h-3.75c-3.08,0-6,1.33-8.01,3.66-2.01,2.32-2.92,5.43-2.47,8.51,.74,5.15,5.38,9.03,10.8,9.03h3.43c1.38,0,2.5-1.12,2.5-2.5s-1.12-2.5-2.5-2.5Z"/><path class="h" d="M58.86,16.42c.02-1.23-.2-2.44-.64-3.59-.42-1.07-1.08-2.05-1.92-2.84-.84-.78-1.81-1.36-2.9-1.74-1.1-.36-2.24-.55-3.39-.55-1.08,0-2.16,.16-3.21,.49-.1,.03-.2,.07-.3,.11l-.6,.22V2.72c-.02-.74-.32-1.43-.86-1.95-.53-.51-1.21-.77-1.98-.77h-.01c-1.5,.03-2.7,1.24-2.73,2.74V26.44c.02,.74,.33,1.43,.88,1.95,.52,.5,1.19,.77,1.89,.77h.08c1.5-.03,2.7-1.24,2.73-2.74v-8.3c0-.72,.1-1.42,.31-2.1,.17-.57,.45-1.09,.81-1.54,.34-.41,.76-.74,1.22-.96,.51-.23,1.08-.35,1.64-.35h.13c.47,0,.99,.08,1.43,.22,.71,.21,1.29,.74,1.55,1.43,.2,.55,.29,1.13,.27,1.73v9.92c.04,1.5,1.29,2.72,2.79,2.72,1.53-.03,2.76-1.24,2.79-2.74v-10Z"/><path class="h" d="M75.47,8.58c-.6-.56-1.4-.88-2.19-.88-.06,0-.12,0-.18,0-1.02,.03-2.03,.2-3.01,.49-.71,.22-1.39,.51-2.04,.86l-.29,.16-.23-.23c-.53-.52-1.26-.82-2-.82-1.53,0-2.8,1.23-2.82,2.74v15.52c.02,.75,.32,1.44,.87,1.96,.52,.5,1.21,.78,1.94,.78,1.55-.03,2.78-1.24,2.81-2.75v-7.24c0-.85,.13-1.7,.38-2.51,.21-.71,.56-1.36,1.03-1.92,.46-.53,1.03-.95,1.67-1.22,.64-.25,1.32-.38,2.01-.38,.17,0,.34,0,.52,.02h.11c.61,0,1.22-.23,1.67-.64,.47-.43,.75-1.06,.75-1.7,0-.85-.36-1.66-.99-2.24Z"/><path class="h" d="M11.01,7.98C4.84,7.98,0,12.64,0,18.57s4.71,10.59,10.95,10.59,11.02-4.65,11.02-10.59S17.26,7.98,11.01,7.98Zm-.06,4.42c3.31,0,5.9,2.71,5.9,6.17v.06c0,3.48-2.51,6.11-5.84,6.11s-5.87-2.71-5.87-6.17,2.5-6.17,5.81-6.17Z"/><path class="h" d="M36.14,7.7h-4.08V3c0-1.54-1.25-2.78-2.79-2.78s-2.78,1.25-2.78,2.78V7.7h-1.71c-1.5,0-2.72,1.22-2.72,2.72s1.22,2.72,2.72,2.72h1.71v13.24c0,1.54,1.25,2.78,2.78,2.78s2.79-1.25,2.79-2.78V13.14h4.08c1.5,0,2.72-1.22,2.72-2.72s-1.22-2.72-2.72-2.72Z"/><path class="f" d="M108.97,29.16h-3.43c-1.38,0-2.5-1.12-2.5-2.5s1.12-2.5,2.5-2.5h3.56c2.72,0,5.1-1.82,5.65-4.34,.37-1.7-.03-3.44-1.1-4.76-1.07-1.33-2.66-2.09-4.36-2.09h-3.75c-1.38,0-2.5-1.12-2.5-2.5s1.12-2.5,2.5-2.5h3.75c3.08,0,6,1.33,8.01,3.66,2.01,2.32,2.92,5.42,2.47,8.51-.74,5.15-5.38,9.03-10.8,9.03Z"/></g></g></g></svg>